<svg width="107" height="107" viewBox="0 0 107 107" fill="none" xmlns="http://www.w3.org/2000/svg">
<path fill-rule="evenodd" clip-rule="evenodd" d="M69.8308 16.823C61.9272 13.3014 53.097 12.429 44.6571 14.3358C36.2172 16.2427 28.6198 20.8268 22.998 27.4043C17.3762 33.9818 14.0312 42.2003 13.4619 50.8342C12.8926 59.4681 15.1295 68.0547 19.8389 75.3135C24.5483 82.5722 31.478 88.1142 39.5945 91.1128C47.7109 94.1114 56.5792 94.406 64.8768 91.9527C73.1744 89.4993 80.4566 84.4295 85.6374 77.4993C90.8182 70.5691 93.62 62.1499 93.6249 53.4973V49.3981C93.6249 46.9359 95.621 44.9398 98.0833 44.9398C100.546 44.9398 102.542 46.9359 102.542 49.3981V53.4998C102.536 64.0753 99.1111 74.368 92.779 82.8382C86.4469 91.3084 77.5464 97.5049 67.405 100.503C57.2635 103.502 46.4245 103.142 36.5044 99.4769C26.5843 95.8119 18.1147 89.0384 12.3587 80.1666C6.60268 71.2948 3.86873 60.8001 4.56456 50.2475C5.26039 39.695 9.34872 29.6501 16.2198 21.6109C23.0909 13.5717 32.3766 7.96904 42.6921 5.6384C53.0075 3.30777 63.8 4.37406 73.4599 8.67827C75.709 9.68042 76.7199 12.3161 75.7177 14.5652C74.7156 16.8143 72.0799 17.8252 69.8308 16.823Z" fill="url(#paint0_linear)"/>
<path fill-rule="evenodd" clip-rule="evenodd" d="M101.234 14.6792C102.976 16.4195 102.977 19.2423 101.237 20.9843L56.6539 65.6122C55.818 66.449 54.6838 66.9193 53.501 66.9196C52.3181 66.9199 51.1837 66.4501 50.3473 65.6138L36.9723 52.2388C35.2312 50.4977 35.2312 47.6748 36.9723 45.9337C38.7134 44.1926 41.5363 44.1926 43.2774 45.9337L53.4983 56.1546L94.9291 14.6824C96.6693 12.9404 99.4922 12.939 101.234 14.6792Z" fill="url(#paint1_linear)"/>
<defs>
<linearGradient id="paint0_linear" x1="-8.33523" y1="4.43263" x2="118.158" y2="10.5117" gradientUnits="userSpaceOnUse">
<stop stop-color="#FF604A"/>
<stop offset="0.958333" stop-color="#FF2B6A"/>
</linearGradient>
<linearGradient id="paint1_linear" x1="26.9437" y1="13.375" x2="113.078" y2="18.5451" gradientUnits="userSpaceOnUse">
<stop stop-color="#FF604A"/>
<stop offset="0.958333" stop-color="#FF2B6A"/>
</linearGradient>
</defs>
</svg>
